<svg width="100" height="122" viewBox="0 0 100 122" fill="none" xmlns="http://www.w3.org/2000/svg">
<path d="M48 54V78L63 86" stroke="#51A2FF" stroke-width="7" stroke-linecap="round" stroke-linejoin="round"/>
<path d="M49.573 122C20.5724 122 0 102.04 0 74.5402C0 59.9407 8.82059 44.2111 9.19372 43.5544C9.95922 42.2029 11.4633 41.4661 13.0328 41.6379C14.5869 41.8364 15.864 42.9474 16.264 44.4478C16.2871 44.5394 18.6644 53.3663 21.8034 58.2685C23.9114 61.5671 26.0502 63.8998 28.4544 65.5186C26.8272 58.5205 25.5809 47.9908 27.6081 37.1863C33.1782 7.52912 56.6972 0.431715 57.705 0.149194C59.0014 -0.221139 60.3785 0.111015 61.3633 1.00058C62.3481 1.89777 62.7981 3.23784 62.5442 4.53973C62.5058 4.7459 58.6206 25.5112 66.8641 43.2032C67.6142 44.8105 68.6567 46.6775 69.78 48.5444C70.0993 45.9788 70.5955 43.2528 71.3571 40.6032C74.3807 30.1079 82.2011 26.523 82.5281 26.3779C83.8321 25.7899 85.3554 25.9808 86.4787 26.8589C87.6019 27.7409 88.1443 29.1611 87.8828 30.5584C87.8404 30.8181 86.7518 37.9575 92.8758 48.0901C98.4075 57.2377 100 63.1668 100 74.5402C100 102.04 78.789 121.996 49.5653 121.996L49.573 122ZM11.9788 55.7143C9.8669 61.0021 7.68964 68.0307 7.68964 74.5402C7.68964 97.6153 25.0231 114.36 49.5692 114.36C74.3345 114.36 92.3065 97.6153 92.3065 74.5364C92.3065 64.5679 91.064 59.9445 86.2787 52.0148C83.0782 46.7233 81.4972 41.9624 80.7432 38.1751C79.9815 39.4006 79.2737 40.8934 78.7583 42.6954C76.4118 50.8313 77.0042 60.3454 77.0119 60.4447C77.1234 62.1474 76.0809 63.7242 74.4576 64.2931C72.8343 64.8619 71.0263 64.3007 70.03 62.9034C69.7415 62.4948 62.8981 52.8853 59.8861 46.4102C53.6236 32.979 53.7275 18.452 54.3699 10.0871C48.0305 13.7522 38.302 21.9377 35.1785 38.5912C32.1357 54.7942 38.0482 70.9972 38.1097 71.1537C38.6213 72.4747 38.3521 73.9751 37.4134 75.0403C36.471 76.0979 35.0208 76.5675 33.6206 76.2353C33.1436 76.1208 22.3188 73.3261 15.3062 62.3612C14.056 60.3988 12.9328 58.0203 11.9826 55.7105L11.9788 55.7143Z" fill="#51A2FF"/>
</svg>
